HIERARCHY
ROOT Hips
{
	OFFSET -80.168388 91.772041 -268.984589
	CHANNELS 6 Xposition Yposition Zposition Zrotation Yrotation Xrotation 
	JOINT LeftUpLeg
	{
		OFFSET 0.103457 1.857818 10.548502
		CHANNELS 3 Xrotation Yrotation Zrotation
		JOINT LeftLeg
		{
			OFFSET 43.500000 -0.000011 -0.000004
			CHANNELS 3 Xrotation Yrotation Zrotation
			JOINT LeftFoot
			{
				OFFSET 42.372192 -0.000004 -0.000008
				CHANNELS 3 Xrotation Yrotation Zrotation
				JOINT LeftToe
				{
					OFFSET 17.300014 0.000006 0.000001
					CHANNELS 3 Xrotation Yrotation Zrotation
					End Site
					{
						OFFSET 0.000000 0.000000 0.000000
					}
				}
			}
		}
	}
	JOINT RightUpLeg
	{
		OFFSET 0.103457 1.857817 -10.548505
		CHANNELS 3 Xrotation Yrotation Zrotation
		JOINT RightLeg
		{
			OFFSET 43.500046 -0.000004 0.000011
			CHANNELS 3 Xrotation Yrotation Zrotation
			JOINT RightFoot
			{
				OFFSET 42.372257 0.000000 0.000015
				CHANNELS 3 Xrotation Yrotation Zrotation
				JOINT RightToe
				{
					OFFSET 17.300003 -0.000000 0.000002
					CHANNELS 3 Xrotation Yrotation Zrotation
					End Site
					{
						OFFSET 0.000000 0.000000 0.000000
					}
				}
			}
		}
	}
	JOINT Spine
	{
		OFFSET 6.901961 -2.603721 -0.000001
		CHANNELS 3 Xrotation Yrotation Zrotation
		JOINT Spine1
		{
			OFFSET 12.588108 0.000002 -0.000001
			CHANNELS 3 Xrotation Yrotation Zrotation
			JOINT Spine2
			{
				OFFSET 12.343199 -0.000020 0.000006
				CHANNELS 3 Xrotation Yrotation Zrotation
				JOINT Neck
				{
					OFFSET 25.832905 0.000017 0.000000
					CHANNELS 3 Xrotation Yrotation Zrotation
					JOINT Head
					{
						OFFSET 11.766604 -0.000006 0.000004
						CHANNELS 3 Xrotation Yrotation Zrotation
						End Site
						{
							OFFSET 0.000000 0.000000 0.000000
						}
					}
				}
				JOINT LeftShoulder
				{
					OFFSET 19.745903 -1.480350 6.000100
					CHANNELS 3 Xrotation Yrotation Zrotation
					JOINT LeftArm
					{
						OFFSET 11.284130 -0.000016 -0.000016
						CHANNELS 3 Xrotation Yrotation Zrotation
						JOINT LeftForeArm
						{
							OFFSET 33.000046 0.000004 0.000031
							CHANNELS 3 Xrotation Yrotation Zrotation
							JOINT LeftHand
							{
								OFFSET 25.199999 0.000027 0.000001
								CHANNELS 3 Xrotation Yrotation Zrotation
								End Site
								{
									OFFSET 0.000000 0.000000 0.000000
								}
							}
						}
					}
				}
				JOINT RightShoulder
				{
					OFFSET 19.746094 -1.480375 -6.000080
					CHANNELS 3 Xrotation Yrotation Zrotation
					JOINT RightArm
					{
						OFFSET 11.284131 -0.000016 -0.000017
						CHANNELS 3 Xrotation Yrotation Zrotation
						JOINT RightForeArm
						{
							OFFSET 33.000095 0.000009 0.000020
							CHANNELS 3 Xrotation Yrotation Zrotation
							JOINT RightHand
							{
								OFFSET 25.199789 0.000132 0.000423
								CHANNELS 3 Xrotation Yrotation Zrotation
								End Site
								{
									OFFSET 0.000000 0.000000 0.000000
								}
							}
						}
					}
				}
			}
		}
	}
}
MOTION
Frames: 10
Frame Time: 0.033333
-80.628159 87.951607 464.163788 79.738579 0.676249 107.795774 138.011663 -3.830594 169.973082 -79.800365 1.503615 -4.354105 77.930942 2.635438 -1.574125 21.454555 0.003106 0.000018 171.739438 3.799694 -179.270363 -34.083511 2.928389 -2.680046 76.214850 4.637902 9.781364 21.454553 -0.003101 -0.000000 10.666959 0.479021 2.077146 11.335144 0.752132 4.191240 11.017932 0.777262 4.186627 8.828301 14.534926 12.765161 -16.688169 -24.000206 23.394639 -168.826731 -73.571144 -12.871880 20.506810 52.878413 37.852806 -83.421629 -6.732622 2.526654 -6.329152 -5.153180 32.753684 169.721704 77.652482 -8.947970 -12.270610 -49.259929 -18.079581 -104.871592 1.677447 -3.082004 -3.793236 1.511088 -26.464517 
-78.241463 89.659660 469.636597 79.990388 -0.079078 110.435792 138.114935 -2.843307 166.922174 -62.863989 1.561607 -5.773988 78.574763 3.682815 -1.477261 21.454562 0.003103 0.000020 175.787377 3.564699 -179.834878 -31.381943 2.597780 -0.607186 70.232540 3.926290 10.449552 21.454546 -0.003091 -0.000004 10.191689 0.145601 1.938083 10.372553 0.116859 3.881337 10.055238 0.140146 3.880551 8.567829 14.879425 13.462688 -15.846350 -24.564552 24.155130 -168.015386 -73.797066 -13.703671 22.721300 50.786104 38.490408 -84.218118 -6.235309 2.526199 -5.732194 -3.843242 33.420768 171.146140 77.650631 -7.497923 -11.250282 -51.384172 -18.789867 -107.023416 1.542962 -3.166764 -3.434302 0.758867 -30.227023 
-75.673752 90.401192 475.375793 79.441070 0.413128 112.799078 140.907800 -2.091088 164.251009 -45.586090 2.113187 -5.854998 78.640790 3.954928 -0.679252 21.454558 0.003107 0.000018 178.480944 2.650498 179.474695 -33.219055 2.220376 0.184756 66.111552 4.982497 13.596928 21.454557 -0.003088 0.000001 9.904802 0.118126 1.776014 9.798104 0.085494 3.555586 9.480665 0.106812 3.554997 8.166853 15.123536 14.164449 -14.727589 -25.012578 24.800005 -167.417485 -73.831497 -14.316773 24.212893 48.970783 38.581686 -85.307663 -5.611009 2.530676 -5.135474 -2.337836 34.162974 172.348581 77.466517 -6.278675 -9.570568 -52.248898 -19.612287 -109.245508 1.477701 -3.258677 -3.323208 0.070233 -35.634828 
-72.942863 90.270729 481.093201 79.203830 1.578680 114.511776 145.222581 -1.085690 163.136719 -31.612639 1.486081 -6.792130 79.675359 5.044445 1.023415 21.454557 0.003109 0.000018 179.335960 1.402597 177.529990 -39.568006 1.664979 0.098685 62.937202 4.849096 12.024172 21.454562 -0.003082 -0.000002 9.748942 0.157222 1.600037 9.487631 0.182792 3.207508 9.170057 0.202011 3.206339 8.284858 15.288926 14.916542 -13.766829 -25.487392 25.470867 -166.409732 -73.751843 -15.350587 24.464600 47.756194 37.927101 -86.800407 -4.811610 2.540908 -4.666644 -0.622343 35.181464 173.427437 77.358606 -5.182667 -7.196032 -52.288803 -20.636238 -111.159000 1.448740 -3.339000 -3.584478 0.140585 -40.219808 
-70.209320 88.783150 486.687103 79.812215 3.150692 115.832522 148.310427 -0.082702 163.590844 -27.003120 1.003361 -8.724832 80.723021 6.555646 1.845942 21.454558 0.003108 0.000019 178.315353 0.848604 175.156527 -50.565653 1.515898 -2.316716 62.238398 6.108718 10.447304 21.454555 -0.003082 -0.000005 9.689499 0.115752 1.325605 9.367581 0.123896 2.656188 9.049852 0.139799 2.655378 9.435969 15.477313 15.885584 -13.507758 -26.046054 26.459929 -165.280387 -73.812079 -16.508432 24.057709 47.011017 36.515609 -88.991962 -3.606147 2.554094 -4.272443 1.055187 35.517933 174.405575 77.572412 -4.180182 -4.094235 -52.253478 -21.807431 -112.164403 1.434072 -3.380944 -3.792153 0.647831 -42.673601 
-67.416763 86.275978 492.187195 81.863745 5.135679 117.676878 150.243671 1.575803 164.157641 -32.942566 0.482621 -11.232771 80.047973 11.239368 14.723028 21.454558 0.003111 0.000018 177.012357 1.424804 173.886863 -63.795087 1.004626 -4.697437 64.534072 7.021824 8.821496 21.454548 -0.003095 -0.000001 9.863201 -0.150855 0.825133 9.710962 -0.370371 1.634675 9.393006 -0.360632 1.636877 11.177003 15.666121 17.033940 -14.249754 -26.257414 27.726210 -165.626582 -74.171715 -16.151309 22.112795 46.771814 33.788406 -91.415061 -2.762275 2.603228 -3.756901 2.468943 33.657813 175.381745 77.902269 -3.177693 -0.765413 -52.846092 -22.329272 -111.361610 1.474434 -3.349469 -3.630772 1.077390 -43.186647 
-64.309334 83.967880 497.365509 85.913569 6.592540 120.614324 151.743799 4.318606 164.031993 -44.297294 0.382163 -11.334055 88.666094 9.957675 14.579795 21.454557 0.003097 0.000017 175.446741 3.108006 173.223706 -76.941384 -0.524661 -3.751377 66.270279 6.620060 9.802667 21.454539 -0.003099 0.000000 10.305233 -0.841052 0.110426 10.597702 -1.688594 0.143329 10.279466 -1.687840 0.153525 12.488642 15.853328 18.040343 -15.861099 -25.696758 28.874396 -169.227417 -74.498758 -12.460872 16.237503 46.984608 27.529798 -92.806083 -2.469095 2.644955 -2.947423 3.653013 31.022521 176.934384 77.784291 -1.599171 2.128537 -54.629547 -21.460504 -107.667400 1.816836 -3.213899 -2.516738 1.401376 -44.137389 
-60.974350 81.935913 502.342407 89.385033 7.530013 124.194218 154.886820 6.689495 163.946082 -51.730582 -0.004693 -10.745201 95.258388 8.534275 13.840193 21.454555 0.003108 0.000017 172.363580 3.863403 173.174652 -88.564570 -2.147635 -0.134675 66.734097 3.210181 7.838610 21.454555 -0.003094 0.000005 10.771652 -1.459231 -0.509655 11.548597 -2.860150 -1.162907 11.230146 -2.867255 -1.145611 13.035894 16.142218 18.698891 -17.839460 -24.779402 29.716954 -176.068603 -74.211330 -5.450009 6.362996 46.351300 18.247289 -92.570134 -2.645264 2.646707 -1.863813 4.618354 31.794435 179.957999 76.992788 1.467277 5.381048 -57.424358 -20.299097 -101.362801 2.773467 -3.003832 0.674241 1.621066 -51.429726 
-57.531288 81.122040 506.828888 91.543263 7.169084 128.068601 159.174990 8.711797 164.505256 -53.978961 -0.613410 -9.308393 99.818563 6.994871 13.981479 21.454555 0.003113 0.000018 166.765352 3.641090 172.672756 -96.698335 -3.223953 3.121679 68.816745 0.176673 6.358528 21.454551 -0.003094 -0.000004 10.966882 -1.853427 -1.045171 11.962569 -3.588645 -2.277719 11.644071 -3.602468 -2.256001 13.315330 16.508955 19.294190 -19.517395 -24.380632 30.624420 176.436395 -73.430824 2.245745 -4.590110 44.889222 9.454396 -91.916506 -3.112658 2.650129 -0.922674 5.360920 37.644598 -175.661687 75.896488 5.924680 10.128364 -60.431280 -20.516524 -95.258579 4.124353 -2.827208 5.962051 1.919499 -70.431080 
-54.021858 81.534058 510.909912 92.228604 6.019805 132.145869 164.033577 10.095399 166.427709 -52.216547 -1.478945 -7.558486 101.915090 5.629217 14.506960 21.454558 0.003105 0.000020 159.913225 2.626488 172.317886 -99.484246 -3.562114 5.685526 69.748253 -2.371691 4.535750 21.454538 -0.003096 0.000003 10.878419 -1.909317 -1.635537 11.805111 -3.641550 -3.459311 11.486941 -3.662500 -3.437266 13.612185 16.746376 20.296559 -20.320294 -24.759820 32.002493 170.912110 -73.160417 7.916201 -13.212214 44.265401 3.842293 -92.593227 -3.313784 2.694445 -0.778411 5.667095 44.253188 -170.857469 74.955684 10.832591 17.575501 -61.839344 -24.360180 -92.304085 5.092686 -2.763555 9.981882 2.265852 -95.779005 
